<svg xmlns="http://www.w3.org/2000/svg" xmlns:xlink="http://www.w3.org/1999/xlink" width="100" zoomAndPan="magnify" viewBox="0 0 75 74.999997" height="100" preserveAspectRatio="xMidYMid meet" version="1.0"><defs><clipPath id="id1"><path d="M 9 3.039062 L 71.546875 3.039062 L 71.546875 45 L 9 45 Z M 9 3.039062 " clip-rule="nonzero"/></clipPath><clipPath id="id2"><path d="M 3.296875 30 L 65 30 L 65 72 L 3.296875 72 Z M 3.296875 30 " clip-rule="nonzero"/></clipPath></defs><g clip-path="url(#id1)"><path fill="#000000" d="M 71.546875 3.089844 L 50.496094 24.09375 L 30.417969 44.125 L 30.257812 44.125 C 25.425781 44.125 20.992188 42.453125 17.5 39.644531 C 12.8125 35.890625 9.808594 30.097656 9.808594 23.609375 C 9.808594 17.945312 12.09375 12.816406 15.804688 9.09375 C 19.503906 5.382812 24.613281 3.089844 30.257812 3.089844 Z M 71.546875 3.089844 " fill-opacity="1" fill-rule="nonzero"/></g><g clip-path="url(#id2)"><path fill="#000000" d="M 64.917969 51.457031 C 64.917969 57.117188 62.636719 62.246094 58.921875 65.972656 C 55.226562 69.683594 50.113281 71.988281 44.457031 71.988281 L 3.296875 71.988281 L 24.347656 50.984375 L 44.425781 30.953125 L 44.488281 30.953125 C 49.320312 30.953125 53.753906 32.625 57.242188 35.433594 C 61.929688 39.171875 64.917969 44.96875 64.917969 51.457031 Z M 64.917969 51.457031 " fill-opacity="1" fill-rule="nonzero"/></g></svg>