<svg xmlns="http://www.w3.org/2000/svg" xmlns:xlink="http://www.w3.org/1999/xlink" width="500" zoomAndPan="magnify" viewBox="0 0 375 374.999991" height="500" preserveAspectRatio="xMidYMid meet" version="1.0"><defs><clipPath id="id1"><path d="M 20 57.335938 L 354 57.335938 L 354 317.585938 L 20 317.585938 Z M 20 57.335938 " clip-rule="nonzero"/></clipPath><clipPath id="id2"><path d="M 42 89 L 351 89 L 351 317.585938 L 42 317.585938 Z M 42 89 " clip-rule="nonzero"/></clipPath><clipPath id="id3"><path d="M 20 57.335938 L 354 57.335938 L 354 306 L 20 306 Z M 20 57.335938 " clip-rule="nonzero"/></clipPath><clipPath id="id4"><path d="M 184 197.128906 L 200.957031 197.128906 L 200.957031 208 L 184 208 Z M 184 197.128906 " clip-rule="nonzero"/></clipPath><clipPath id="id5"><path d="M 182.957031 204 L 200 204 L 200 215.128906 L 182.957031 215.128906 Z M 182.957031 204 " clip-rule="nonzero"/></clipPath></defs><path fill="#f5f5f5" d="M 67.582031 313.4375 L 95.355469 313.4375 C 95.355469 313.4375 96.035156 310.472656 92.234375 308.976562 C 88.816406 307.636719 84.441406 306.597656 79.492188 301.230469 C 75.070312 305.785156 68.492188 303.273438 68.492188 303.273438 C 68.492188 303.273438 66.820312 307.597656 67.582031 313.4375 Z M 67.582031 313.4375 " fill-opacity="1" fill-rule="nonzero"/><g clip-path="url(#id1)"><path fill="#f5f5f5" d="M 349.6875 304.996094 L 344.566406 305.050781 L 353.761719 304.949219 L 344.050781 234.5 L 345.410156 188.296875 C 345.347656 188.316406 345.289062 188.335938 345.230469 188.355469 C 345.988281 188.09375 346.734375 187.816406 347.464844 187.519531 C 347.464844 187.519531 346.867188 176.121094 341.113281 164.320312 L 341.804688 150.269531 C 341.804688 150.269531 341.800781 150.269531 341.800781 150.269531 C 348.730469 146.136719 354.449219 138.53125 348.214844 134.140625 C 346.378906 132.851562 343.890625 133.988281 343.644531 126.25 C 343.460938 120.53125 338.707031 119.808594 335.984375 118.046875 C 335.683594 116.71875 335.027344 115.523438 334.101562 114.542969 C 333.796875 107.742188 328.113281 96.550781 314.507812 99.683594 C 312.089844 100.238281 307.546875 103.15625 309.621094 108.097656 C 309.1875 109.503906 308.863281 110.773438 308.613281 111.9375 L 243.273438 111.9375 C 242.304688 110.875 241.003906 110.039062 239.515625 109.285156 C 237.566406 108.292969 235.304688 107.4375 233.109375 106.375 C 225.9375 102.902344 209.347656 97.203125 209.347656 97.203125 C 209.347656 97.203125 209.347656 97.203125 209.347656 97.207031 C 208.328125 96.546875 207.265625 95.90625 206.234375 95.308594 C 204.34375 90.546875 202.757812 84.199219 203.15625 76.773438 C 203.339844 73.347656 202.816406 70.726562 201.964844 68.71875 C 206.140625 67.226562 207.832031 58.222656 201.582031 57.726562 C 197.296875 57.390625 195.300781 60.148438 194.386719 62.433594 C 193.839844 62.347656 193.285156 62.308594 192.730469 62.3125 C 177.59375 62.5 179.316406 71.722656 180.507812 78.238281 C 181.832031 85.515625 181.640625 91.648438 181.082031 96.058594 C 179.8125 96.789062 178.660156 97.582031 177.828125 98.402344 C 172.941406 99.792969 162.507812 108.363281 162.1875 104.171875 C 161.898438 100.414062 161.976562 95.570312 161.335938 91.835938 L 166.347656 92.265625 C 167.324219 92.347656 167.984375 91.667969 167.828125 90.746094 L 164.304688 70.101562 C 164.144531 69.179688 163.226562 68.363281 162.253906 68.28125 L 146.761719 66.957031 C 145.789062 66.875 145.125 67.554688 145.28125 68.476562 L 146.789062 77.292969 C 145.855469 77.742188 144.546875 78.285156 144.699219 79.078125 C 144.859375 79.929688 145.441406 81.40625 145.441406 81.40625 C 145.441406 81.40625 145.039062 81.851562 145.273438 82.640625 C 145.511719 83.429688 146.296875 83.605469 146.296875 83.605469 C 146.296875 83.605469 145.808594 84.007812 145.828125 84.65625 C 145.847656 85.300781 147.476562 86.246094 147.476562 86.246094 C 147.476562 86.246094 147.082031 87.214844 147.445312 87.625 C 147.667969 87.882812 148.117188 88.152344 148.664062 88.28125 L 148.808594 89.121094 C 148.875 89.523438 149.09375 89.898438 149.394531 90.207031 C 149.273438 90.496094 149.15625 90.78125 149.058594 91.097656 C 147.570312 95.910156 149.226562 107.664062 148.800781 111.289062 C 148.777344 111.492188 148.761719 111.710938 148.75 111.9375 L 71.910156 111.9375 C 71.925781 111.332031 71.898438 110.839844 71.804688 110.429688 C 71.671875 109.40625 71.207031 108.367188 70.167969 107.308594 C 67.375 104.460938 61.292969 100.511719 56.011719 104.898438 C 55.1875 105.578125 53.089844 105.222656 51.535156 106.195312 C 49.09375 107.722656 47.703125 110.171875 47.214844 112.777344 C 47.214844 112.777344 47.199219 112.78125 47.199219 112.78125 C 47.199219 112.78125 43.871094 126.765625 45.277344 133.6875 C 45.277344 133.6875 45.617188 133.714844 46.214844 133.757812 L 46.214844 138.167969 C 44.847656 138.808594 43.585938 139.503906 42.683594 140.210938 C 42.683594 140.210938 42.679688 140.207031 42.679688 140.207031 C 42.679688 140.207031 42.644531 140.238281 42.585938 140.285156 C 42.378906 140.453125 42.1875 140.621094 42.019531 140.789062 C 39.59375 142.984375 30.9375 151.230469 25.351562 162.105469 C 19.078125 174.328125 19.484375 175.625 25.230469 182.558594 C 30.972656 189.496094 34.234375 193.785156 37.828125 197.511719 C 40.921875 200.714844 43.5625 201.054688 45.476562 199.261719 C 45.390625 199.207031 45.308594 199.15625 45.226562 199.101562 C 45.535156 199.308594 45.878906 199.496094 46.214844 199.664062 L 46.214844 200.433594 C 46.105469 200.507812 46.007812 200.613281 45.957031 200.789062 C 45.917969 200.933594 46.019531 201.082031 46.214844 201.226562 L 46.214844 247.332031 C 41.375 263.429688 42.359375 287.027344 42.359375 297.597656 L 43.351562 297.597656 C 43.355469 299.070312 43.34375 300.703125 43.304688 302.402344 C 43.304688 302.402344 43.304688 302.40625 43.304688 302.40625 C 43.304688 302.40625 43.304688 302.402344 43.304688 302.402344 C 42.773438 306.386719 42.03125 309.054688 42.339844 313.4375 L 58.773438 313.4375 C 58.589844 308.1875 52.453125 308.113281 52.421875 302.542969 C 52.390625 302.355469 52.34375 302.1875 52.292969 302.039062 C 52.320312 300.644531 52.429688 299.089844 52.566406 297.597656 L 53.695312 297.597656 L 59.652344 271.835938 L 65.664062 271.835938 C 66.253906 282.082031 67.582031 291.800781 68.402344 297.597656 L 68.984375 297.597656 C 69.015625 299.59375 68.890625 301.542969 68.496094 303.273438 C 68.496094 303.273438 68.496094 303.277344 68.496094 303.277344 L 68.496094 303.273438 C 68.496094 303.273438 75.039062 305.769531 79.457031 301.265625 C 79.378906 300.171875 79.363281 298.910156 79.375 297.597656 L 79.734375 297.597656 L 82.097656 271.835938 L 135.882812 271.835938 C 138.660156 283.304688 143.703125 295.671875 146.445312 301.992188 C 147.167969 303.652344 149.523438 303.652344 150.246094 301.992188 C 151.597656 298.875 153.511719 294.285156 155.4375 289.054688 L 186.046875 289.054688 C 187.578125 293.050781 189.035156 296.523438 190.128906 299.039062 C 190.847656 300.699219 193.203125 300.699219 193.925781 299.039062 C 195.015625 296.523438 196.472656 293.050781 198.003906 289.054688 L 228.535156 289.054688 C 230.460938 294.285156 232.375 298.875 233.726562 301.992188 C 234.449219 303.65625 236.808594 303.65625 237.527344 301.992188 C 240.269531 295.675781 245.3125 283.304688 248.089844 271.835938 L 307.054688 271.835938 L 311.199219 305.246094 L 328.9375 305.152344 L 326.589844 271.839844 L 327.964844 271.839844 C 328.6875 271.839844 329.386719 271.742188 330.054688 271.578125 L 336.179688 305.152344 L 338.578125 305.125 C 336.320312 307.496094 331.609375 310.328125 327.890625 312.132812 L 327.898438 312.144531 L 327.890625 312.132812 C 327.863281 312.144531 327.835938 312.160156 327.808594 312.171875 C 327.5625 312.253906 327.320312 312.347656 327.082031 312.457031 C 327.011719 312.488281 326.945312 312.542969 326.882812 312.609375 C 326.632812 312.722656 326.386719 312.832031 326.152344 312.933594 C 326.128906 312.945312 326.105469 312.957031 326.082031 312.964844 C 326.066406 310.914062 325.863281 308.316406 325.109375 305.992188 C 325.105469 305.730469 325.109375 305.453125 325.117188 305.171875 L 313.074219 305.238281 C 310.605469 307.390625 306.597656 309.75 303.351562 311.328125 C 302.738281 311.625 302.152344 311.894531 301.613281 312.128906 C 299.226562 313.164062 298.625 314.355469 298.46875 315.503906 C 298.390625 316.109375 298.863281 316.648438 299.476562 316.648438 L 323.027344 316.648438 C 323.125 317.101562 323.523438 317.453125 324.015625 317.453125 L 349.53125 317.453125 C 350.058594 317.453125 350.5 317.046875 350.539062 316.515625 C 350.570312 316.085938 350.601562 315.519531 350.617188 314.863281 C 350.667969 312.703125 350.542969 309.550781 349.648438 306.796875 C 349.644531 306.230469 349.660156 305.621094 349.6875 304.996094 Z M 52 301.507812 C 51.960938 301.457031 51.925781 301.402344 51.886719 301.359375 C 51.925781 301.402344 51.960938 301.457031 52 301.507812 Z M 51.742188 301.238281 C 51.699219 301.203125 51.65625 301.164062 51.609375 301.132812 C 51.65625 301.164062 51.699219 301.203125 51.742188 301.238281 Z M 51.445312 301.050781 C 51.394531 301.023438 51.34375 300.996094 51.289062 300.976562 C 51.34375 300.996094 51.394531 301.023438 51.445312 301.050781 Z M 51.105469 300.925781 C 51.050781 300.914062 50.992188 300.898438 50.933594 300.890625 C 50.992188 300.898438 51.050781 300.914062 51.105469 300.925781 Z M 50.738281 300.871094 C 50.675781 300.863281 50.613281 300.859375 50.550781 300.859375 C 50.613281 300.859375 50.675781 300.863281 50.738281 300.871094 Z M 46.820312 302.167969 C 46.683594 302.246094 46.546875 302.324219 46.417969 302.402344 C 46.546875 302.324219 46.683594 302.246094 46.820312 302.167969 Z M 50.339844 300.867188 C 50.273438 300.871094 50.207031 300.875 50.140625 300.882812 C 50.207031 300.875 50.273438 300.871094 50.339844 300.867188 Z M 49.921875 300.914062 C 49.851562 300.925781 49.78125 300.941406 49.707031 300.957031 C 49.78125 300.941406 49.851562 300.925781 49.921875 300.914062 Z M 49.484375 301.007812 C 49.414062 301.027344 49.339844 301.046875 49.261719 301.070312 C 49.339844 301.050781 49.414062 301.027344 49.484375 301.007812 Z M 49.039062 301.140625 C 48.960938 301.164062 48.886719 301.191406 48.808594 301.21875 C 48.886719 301.191406 48.960938 301.164062 49.039062 301.140625 Z M 48.585938 301.304688 C 48.507812 301.335938 48.429688 301.367188 48.347656 301.402344 C 48.429688 301.367188 48.507812 301.335938 48.585938 301.304688 Z M 48.132812 301.496094 C 48.050781 301.53125 47.96875 301.570312 47.886719 301.609375 C 47.96875 301.570312 48.050781 301.53125 48.132812 301.496094 Z M 47.683594 301.703125 C 47.597656 301.746094 47.511719 301.792969 47.429688 301.835938 C 47.511719 301.792969 47.597656 301.746094 47.683594 301.703125 Z M 47.246094 301.929688 C 47.152344 301.980469 47.0625 302.03125 46.972656 302.082031 C 47.0625 302.03125 47.152344 301.980469 47.246094 301.929688 Z M 52.117188 301.664062 C 52.183594 301.773438 52.238281 301.898438 52.289062 302.035156 C 52.238281 301.898438 52.183594 301.773438 52.117188 301.664062 Z M 343.941406 188.785156 C 344.082031 188.742188 344.21875 188.695312 344.359375 188.648438 C 344.21875 188.695312 344.082031 188.742188 343.941406 188.785156 Z M 343.046875 189.0625 C 342.910156 189.101562 342.769531 189.144531 342.628906 189.183594 C 342.769531 189.144531 342.910156 189.101562 343.046875 189.0625 Z M 341.71875 189.441406 C 341.582031 189.480469 341.441406 189.515625 341.300781 189.554688 C 341.441406 189.515625 341.582031 189.480469 341.71875 189.441406 Z M 340.722656 150.878906 C 340.660156 150.910156 340.601562 150.945312 340.539062 150.976562 C 340.601562 150.945312 340.660156 150.910156 340.722656 150.878906 Z M 339.429688 151.527344 C 339.425781 151.527344 339.425781 151.53125 339.421875 151.53125 C 339.425781 151.53125 339.425781 151.527344 339.429688 151.527344 Z M 338.367188 151.984375 C 338.28125 152.019531 338.195312 152.050781 338.109375 152.085938 C 338.195312 152.050781 338.28125 152.019531 338.367188 151.984375 Z M 340.371094 189.792969 C 340.234375 189.828125 340.101562 189.859375 339.964844 189.894531 C 340.101562 189.859375 340.234375 189.828125 340.371094 189.792969 Z M 339.007812 190.117188 C 338.878906 190.148438 338.753906 190.175781 338.625 190.203125 C 338.753906 190.175781 338.878906 190.148438 339.007812 190.117188 Z M 337.632812 190.414062 C 337.515625 190.441406 337.394531 190.460938 337.277344 190.484375 C 337.394531 190.460938 337.515625 190.4375 337.632812 190.414062 Z M 199.601562 78.863281 C 199.59375 78.902344 199.585938 78.9375 199.582031 78.972656 C 199.585938 78.9375 199.59375 78.898438 199.601562 78.863281 Z M 199.488281 79.40625 Z M 199.238281 80.152344 C 199.257812 80.101562 199.277344 80.046875 199.300781 79.992188 C 199.277344 80.046875 199.257812 80.101562 199.238281 80.152344 Z M 198.683594 81.097656 C 198.769531 80.988281 198.851562 80.871094 198.925781 80.753906 C 198.851562 80.875 198.769531 80.988281 198.683594 81.097656 Z M 199.019531 80.589844 C 199.058594 80.519531 199.097656 80.445312 199.136719 80.371094 C 199.097656 80.445312 199.058594 80.519531 199.019531 80.589844 Z M 198.363281 81.4375 C 198.445312 81.363281 198.519531 81.28125 198.59375 81.199219 C 198.519531 81.28125 198.445312 81.363281 198.363281 81.4375 Z M 197.898438 81.792969 C 198.027344 81.714844 198.148438 81.625 198.261719 81.527344 C 198.148438 81.625 198.027344 81.714844 197.898438 81.792969 Z M 197.476562 89.675781 C 197.40625 89.710938 197.332031 89.746094 197.261719 89.785156 C 197.332031 89.746094 197.40625 89.710938 197.476562 89.675781 Z M 198.78125 89.214844 C 198.699219 89.222656 198.613281 89.234375 198.523438 89.253906 C 198.613281 89.234375 198.699219 89.222656 198.78125 89.214844 Z M 198.425781 89.28125 C 198.367188 89.300781 198.304688 89.316406 198.242188 89.335938 C 198.304688 89.316406 198.363281 89.300781 198.425781 89.28125 Z M 198.121094 89.382812 C 198.0625 89.40625 198 89.429688 197.9375 89.457031 C 198 89.429688 198.0625 89.40625 198.121094 89.382812 Z M 197.804688 89.515625 C 197.742188 89.542969 197.679688 89.574219 197.613281 89.605469 C 197.679688 89.574219 197.742188 89.542969 197.804688 89.515625 Z M 188.457031 90.628906 C 188.402344 90.628906 188.351562 90.632812 188.300781 90.644531 C 188.351562 90.632812 188.402344 90.628906 188.457031 90.628906 Z M 193.265625 91.582031 C 193.007812 91.636719 192.761719 91.660156 192.519531 91.675781 C 192.757812 91.660156 193.007812 91.636719 193.265625 91.582031 Z M 192.417969 91.679688 C 192.195312 91.6875 191.980469 91.679688 191.773438 91.65625 C 191.980469 91.679688 192.195312 91.6875 192.417969 91.679688 Z M 191.652344 91.644531 C 191.453125 91.621094 191.257812 91.585938 191.074219 91.542969 C 191.257812 91.585938 191.453125 91.621094 191.652344 91.644531 Z M 190.96875 91.515625 C 190.785156 91.46875 190.605469 91.414062 190.4375 91.355469 C 190.605469 91.414062 190.785156 91.46875 190.96875 91.515625 Z M 190.382812 91.335938 C 190.230469 91.28125 190.082031 91.222656 189.941406 91.164062 C 190.082031 91.222656 190.230469 91.28125 190.382812 91.335938 Z M 189.828125 91.117188 C 189.726562 91.074219 189.632812 91.035156 189.542969 90.992188 C 189.632812 91.035156 189.726562 91.074219 189.828125 91.117188 Z M 188.996094 90.761719 C 188.988281 90.761719 188.980469 90.757812 188.972656 90.753906 C 188.980469 90.757812 188.988281 90.761719 188.996094 90.761719 Z M 193.714844 91.46875 C 193.765625 91.457031 193.816406 91.4375 193.863281 91.421875 C 193.816406 91.4375 193.765625 91.457031 193.714844 91.46875 Z M 194.160156 91.328125 C 194.21875 91.304688 194.277344 91.285156 194.332031 91.261719 C 194.277344 91.285156 194.21875 91.304688 194.160156 91.328125 Z M 194.601562 91.15625 C 194.660156 91.132812 194.71875 91.105469 194.773438 91.082031 C 194.71875 91.105469 194.660156 91.132812 194.601562 91.15625 Z M 195.035156 90.964844 C 195.089844 90.9375 195.148438 90.914062 195.203125 90.886719 C 195.148438 90.914062 195.089844 90.9375 195.035156 90.964844 Z M 195.46875 90.753906 C 195.515625 90.730469 195.566406 90.707031 195.617188 90.679688 C 195.566406 90.703125 195.515625 90.730469 195.46875 90.753906 Z M 195.90625 90.527344 C 195.941406 90.507812 195.980469 90.488281 196.019531 90.464844 C 195.980469 90.488281 195.941406 90.507812 195.90625 90.527344 Z M 196.410156 90.25 C 196.527344 90.1875 196.644531 90.121094 196.757812 90.058594 C 196.644531 90.121094 196.527344 90.1875 196.410156 90.25 Z M 196.878906 89.992188 C 196.960938 89.945312 197.046875 89.898438 197.128906 89.855469 C 197.046875 89.898438 196.960938 89.945312 196.878906 89.992188 Z M 310.953125 110.351562 C 310.898438 110.277344 310.851562 110.207031 310.796875 110.136719 C 310.851562 110.207031 310.898438 110.277344 310.953125 110.351562 Z M 310.027344 108.925781 C 309.996094 108.867188 309.960938 108.808594 309.929688 108.75 C 309.960938 108.808594 309.996094 108.867188 310.027344 108.925781 Z M 310.457031 109.644531 C 310.410156 109.570312 310.359375 109.492188 310.3125 109.417969 C 310.359375 109.492188 310.410156 109.570312 310.457031 109.644531 Z M 205.402344 94.832031 C 205.363281 94.808594 205.324219 94.789062 205.285156 94.765625 C 205.324219 94.789062 205.363281 94.808594 205.402344 94.832031 Z M 204.578125 94.371094 C 204.542969 94.351562 204.511719 94.332031 204.476562 94.3125 C 204.511719 94.332031 204.542969 94.351562 204.578125 94.371094 Z M 202.988281 93.503906 C 202.941406 93.476562 202.894531 93.453125 202.847656 93.429688 C 202.894531 93.453125 202.941406 93.476562 202.988281 93.503906 Z M 202.25 93.113281 C 202.226562 93.101562 202.203125 93.085938 202.179688 93.074219 C 202.203125 93.085938 202.226562 93.101562 202.25 93.113281 Z M 201.566406 92.753906 C 201.527344 92.734375 201.492188 92.714844 201.453125 92.695312 C 201.492188 92.714844 201.527344 92.734375 201.566406 92.753906 Z M 201.011719 92.46875 C 200.964844 92.445312 200.917969 92.421875 200.875 92.398438 C 200.917969 92.421875 200.964844 92.445312 201.011719 92.46875 Z M 150.464844 90.867188 C 150.441406 90.859375 150.414062 90.847656 150.386719 90.835938 C 150.414062 90.847656 150.441406 90.859375 150.464844 90.867188 Z M 150.082031 90.714844 C 150.0625 90.703125 150.046875 90.695312 150.027344 90.683594 C 150.046875 90.695312 150.0625 90.703125 150.082031 90.714844 Z M 149.132812 88.34375 C 149.167969 88.34375 149.207031 88.347656 149.242188 88.347656 C 149.207031 88.347656 149.167969 88.347656 149.132812 88.34375 Z M 149.714844 90.488281 C 149.707031 90.484375 149.703125 90.480469 149.699219 90.476562 C 149.703125 90.480469 149.707031 90.484375 149.714844 90.488281 Z M 38.753906 173.367188 C 38.6875 172.539062 43.128906 168.632812 46.210938 164.945312 L 46.210938 182.523438 C 42.789062 178.851562 38.867188 174.734375 38.753906 173.367188 Z M 44.5 198.445312 C 44.550781 198.511719 44.605469 198.578125 44.667969 198.644531 C 44.605469 198.578125 44.550781 198.511719 44.5 198.445312 Z M 44.277344 197.9375 C 44.289062 198.011719 44.3125 198.085938 44.339844 198.160156 C 44.308594 198.085938 44.289062 198.011719 44.277344 197.9375 Z M 44.367188 198.222656 C 44.394531 198.277344 44.425781 198.328125 44.460938 198.382812 C 44.425781 198.328125 44.394531 198.277344 44.367188 198.222656 Z M 44.972656 198.910156 C 45.023438 198.953125 45.074219 198.992188 45.132812 199.03125 C 45.074219 198.992188 45.023438 198.953125 44.972656 198.910156 Z M 44.710938 198.679688 C 44.761719 198.734375 44.820312 198.785156 44.882812 198.839844 C 44.820312 198.789062 44.761719 198.734375 44.710938 198.679688 Z M 336.179688 190.699219 C 336.203125 190.695312 336.226562 190.691406 336.25 190.6875 C 336.226562 190.691406 336.203125 190.695312 336.179688 190.699219 Z M 336.179688 190.699219 " fill-opacity="1" fill-rule="nonzero"/></g><path fill="#f5f5f5" d="M 336.179688 119.636719 L 336.179688 264.136719 C 336.179688 268.386719 332.5 271.835938 327.964844 271.835938 L 54.433594 271.835938 C 52.007812 271.835938 49.824219 270.851562 48.320312 269.277344 C 47.007812 267.917969 46.214844 266.113281 46.214844 264.136719 L 46.214844 119.636719 C 46.214844 115.386719 49.894531 111.9375 54.433594 111.9375 L 327.964844 111.9375 C 329.484375 111.9375 330.902344 112.320312 332.121094 112.996094 C 334.546875 114.332031 336.179688 116.808594 336.179688 119.636719 Z M 336.179688 119.636719 " fill-opacity="1" fill-rule="nonzero"/><path fill="#6b71ff" d="M 334.695312 115.453125 C 333.21875 113.328125 330.753906 111.9375 327.964844 111.9375 L 54.433594 111.9375 C 51.640625 111.9375 49.175781 113.328125 47.695312 115.453125 C 46.757812 116.785156 46.214844 118.40625 46.214844 120.15625 L 46.214844 129.257812 L 336.179688 129.257812 L 336.179688 120.15625 C 336.179688 118.40625 335.632812 116.785156 334.695312 115.453125 Z M 303.386719 123.730469 C 301.882812 123.730469 300.660156 122.511719 300.660156 121.007812 C 300.660156 119.5 301.882812 118.28125 303.386719 118.28125 C 304.890625 118.28125 306.113281 119.5 306.113281 121.007812 C 306.113281 122.511719 304.890625 123.730469 303.386719 123.730469 Z M 312.21875 123.730469 C 310.714844 123.730469 309.492188 122.511719 309.492188 121.007812 C 309.492188 119.5 310.714844 118.28125 312.21875 118.28125 C 313.722656 118.28125 314.941406 119.5 314.941406 121.007812 C 314.941406 122.511719 313.722656 123.730469 312.21875 123.730469 Z M 320.621094 123.730469 C 319.117188 123.730469 317.898438 122.511719 317.898438 121.007812 C 317.898438 119.5 319.117188 118.28125 320.621094 118.28125 C 322.128906 118.28125 323.347656 119.5 323.347656 121.007812 C 323.347656 122.511719 322.128906 123.730469 320.621094 123.730469 Z M 46.214844 133.136719 L 336.179688 133.136719 L 336.179688 134.296875 L 46.214844 134.296875 Z M 234.792969 196.507812 C 237.480469 222.152344 234.792969 274.859375 234.792969 274.859375 L 202.871094 274.859375 C 204.929688 267.898438 206.457031 260.832031 206.457031 255.171875 C 206.457031 241.894531 198.074219 237.148438 194.085938 235.640625 C 192.753906 235.136719 191.292969 235.136719 189.964844 235.640625 C 185.976562 237.148438 177.589844 241.890625 177.589844 255.171875 C 177.589844 260.832031 179.117188 267.898438 181.175781 274.859375 L 149.285156 274.859375 C 149.285156 274.859375 146.597656 222.152344 149.285156 196.507812 C 150.445312 185.457031 158.539062 172.445312 167.382812 161.207031 C 168.660156 159.582031 169.953125 157.996094 171.246094 156.457031 L 171.273438 156.472656 C 175.289062 158.769531 182.222656 161.5 192.417969 161.5 C 200.484375 161.5 207.46875 159.964844 213.179688 156.929688 L 213.210938 156.914062 C 214.632812 158.617188 216.054688 160.375 217.453125 162.179688 C 225.996094 173.1875 233.667969 185.777344 234.792969 196.507812 Z M 302.453125 169.457031 L 251.0625 169.457031 C 249.863281 169.457031 248.890625 170.429688 248.890625 171.628906 L 248.890625 203.996094 C 248.890625 205.195312 249.863281 206.167969 251.0625 206.167969 L 302.453125 206.167969 C 303.652344 206.167969 304.625 205.195312 304.625 203.996094 L 304.625 171.628906 C 304.625 170.429688 303.652344 169.457031 302.453125 169.457031 Z M 296.585938 171.984375 C 297.226562 171.984375 297.75 172.503906 297.75 173.148438 C 297.75 173.789062 297.226562 174.3125 296.585938 174.3125 C 295.941406 174.3125 295.421875 173.789062 295.421875 173.148438 C 295.421875 172.503906 295.941406 171.984375 296.585938 171.984375 Z M 270.742188 198.742188 L 256.261719 198.742188 C 255.878906 198.742188 255.566406 198.433594 255.566406 198.046875 C 255.566406 197.664062 255.878906 197.355469 256.261719 197.355469 L 270.742188 197.355469 C 271.125 197.355469 271.4375 197.664062 271.4375 198.046875 C 271.4375 198.433594 271.125 198.742188 270.742188 198.742188 Z M 270.742188 193.667969 L 256.261719 193.667969 C 255.878906 193.667969 255.566406 193.355469 255.566406 192.972656 C 255.566406 192.589844 255.878906 192.28125 256.261719 192.28125 L 270.742188 192.28125 C 271.125 192.28125 271.4375 192.589844 271.4375 192.972656 C 271.4375 193.355469 271.125 193.667969 270.742188 193.667969 Z M 270.742188 188.59375 L 256.261719 188.59375 C 255.878906 188.59375 255.566406 188.28125 255.566406 187.898438 C 255.566406 187.515625 255.878906 187.207031 256.261719 187.207031 L 270.742188 187.207031 C 271.125 187.207031 271.4375 187.515625 271.4375 187.898438 C 271.4375 188.28125 271.125 188.59375 270.742188 188.59375 Z M 270.742188 183.519531 L 256.261719 183.519531 C 255.878906 183.519531 255.566406 183.207031 255.566406 182.824219 C 255.566406 182.441406 255.878906 182.132812 256.261719 182.132812 L 270.742188 182.132812 C 271.125 182.132812 271.4375 182.441406 271.4375 182.824219 C 271.4375 183.207031 271.125 183.519531 270.742188 183.519531 Z M 284.429688 201.074219 L 280.425781 201.074219 L 280.558594 194.628906 L 284.5625 194.628906 Z M 290.875 201.074219 L 286.871094 201.074219 L 287.003906 186.132812 L 291.007812 186.132812 Z M 291.648438 173.148438 C 291.648438 172.503906 292.167969 171.984375 292.8125 171.984375 C 293.457031 171.984375 293.976562 172.503906 293.976562 173.148438 C 293.976562 173.789062 293.457031 174.3125 292.8125 174.3125 C 292.167969 174.3125 291.648438 173.789062 291.648438 173.148438 Z M 297.625 201.074219 L 293.617188 201.074219 L 293.753906 180.394531 L 297.757812 180.394531 Z M 300.175781 174.3125 C 299.53125 174.3125 299.011719 173.789062 299.011719 173.148438 C 299.011719 172.503906 299.53125 171.984375 300.175781 171.984375 C 300.816406 171.984375 301.339844 172.503906 301.339844 173.148438 C 301.339844 173.789062 300.816406 174.3125 300.175781 174.3125 Z M 135.464844 148.929688 L 89.847656 148.929688 C 89.0625 148.929688 88.425781 149.566406 88.425781 150.351562 L 88.425781 203.304688 C 88.425781 204.089844 89.0625 204.726562 89.847656 204.726562 L 135.464844 204.726562 C 136.246094 204.726562 136.882812 204.089844 136.882812 203.304688 L 136.882812 150.351562 C 136.882812 149.566406 136.246094 148.929688 135.464844 148.929688 Z M 126.09375 151.414062 C 126.726562 151.414062 127.238281 151.925781 127.238281 152.558594 C 127.238281 153.1875 126.722656 153.703125 126.09375 153.703125 C 125.460938 153.703125 124.949219 153.1875 124.949219 152.558594 C 124.949219 151.925781 125.460938 151.414062 126.09375 151.414062 Z M 112.59375 195.660156 C 103.054688 195.660156 95.289062 187.894531 95.289062 178.351562 C 95.289062 169.515625 101.949219 162.203125 110.515625 161.171875 C 110.496094 163.246094 110.453125 165.324219 110.402344 167.402344 C 105.289062 168.421875 101.425781 172.945312 101.425781 178.351562 C 101.425781 184.511719 106.4375 189.523438 112.59375 189.523438 C 117.46875 189.523438 121.621094 186.382812 123.140625 182.019531 C 125.324219 181.796875 127.5 181.5 129.667969 181.167969 C 128.320312 189.378906 121.179688 195.660156 112.59375 195.660156 Z M 129.773438 180.464844 C 127.640625 180.792969 125.507812 181.085938 123.363281 181.308594 C 123.621094 180.367188 123.761719 179.375 123.761719 178.351562 C 123.761719 172.195312 118.753906 167.183594 112.59375 167.183594 C 112.082031 167.183594 111.578125 167.21875 111.085938 167.289062 C 111.136719 165.226562 111.179688 163.164062 111.195312 161.101562 C 111.65625 161.0625 112.125 161.042969 112.59375 161.042969 C 122.136719 161.042969 129.898438 168.808594 129.898438 178.351562 C 129.902344 179.070312 129.855469 179.773438 129.773438 180.464844 Z M 129.800781 153.703125 C 129.167969 153.703125 128.65625 153.1875 128.65625 152.558594 C 128.65625 151.925781 129.167969 151.414062 129.800781 151.414062 C 130.433594 151.414062 130.945312 151.925781 130.945312 152.558594 C 130.945312 153.191406 130.433594 153.703125 129.800781 153.703125 Z M 133.332031 153.703125 C 132.699219 153.703125 132.1875 153.1875 132.1875 152.558594 C 132.1875 151.925781 132.699219 151.414062 133.332031 151.414062 C 133.960938 151.414062 134.476562 151.925781 134.476562 152.558594 C 134.476562 153.191406 133.960938 153.703125 133.332031 153.703125 Z M 133.332031 153.703125 " fill-opacity="1" fill-rule="nonzero"/><g clip-path="url(#id2)"><path fill="#3d3d3d" d="M 58.769531 313.4375 L 42.335938 313.4375 C 42.027344 309.054688 42.773438 306.386719 43.304688 302.402344 C 43.304688 302.402344 44.484375 303.578125 46.417969 302.402344 C 48.574219 301.09375 51.9375 299.636719 52.417969 302.542969 C 52.453125 308.113281 58.585938 308.1875 58.769531 313.4375 Z M 92.234375 308.976562 C 88.816406 307.636719 84.441406 306.597656 79.492188 301.230469 C 75.070312 305.785156 68.492188 303.273438 68.492188 303.273438 C 68.492188 303.273438 66.820312 307.597656 67.585938 313.4375 L 95.359375 313.4375 C 95.355469 313.4375 96.035156 310.472656 92.234375 308.976562 Z M 302.933594 153.90625 C 302.609375 155.875 302.390625 157.394531 302.296875 158.0625 L 313.800781 160.996094 L 313.121094 164.167969 L 310.53125 176.234375 L 306.011719 191.828125 C 315.1875 192.539062 333.816406 193.078125 347.464844 187.519531 C 347.464844 187.519531 346.867188 176.121094 341.113281 164.320312 L 341.804688 150.269531 C 340.242188 151.203125 338.617188 151.960938 337.050781 152.464844 C 321.324219 157.527344 313.917969 149.699219 312.816406 145.679688 C 311.730469 141.722656 313.15625 137.554688 314.980469 135.125 C 316.128906 133.597656 314.71875 131.292969 314.441406 128.890625 C 312.109375 130.851562 309.570312 133.308594 307.835938 135.882812 L 292.53125 141.960938 L 297.027344 154.851562 Z M 148.835938 264.34375 C 148.773438 262.683594 148.707031 260.871094 148.644531 258.929688 L 148.4375 258.929688 L 148.445312 257.484375 L 148.597656 257.488281 C 148.417969 251.753906 148.246094 245.03125 148.15625 238.015625 C 146.480469 238.40625 133.910156 241.867188 133.910156 258.125 C 133.910156 271.582031 142.523438 292.960938 146.445312 301.992188 C 147.167969 303.652344 149.523438 303.652344 150.246094 301.992188 C 151.597656 298.875 153.511719 294.28125 155.4375 289.054688 L 148.835938 289.054688 Z M 194.085938 235.640625 C 192.753906 235.136719 191.292969 235.136719 189.964844 235.640625 C 185.976562 237.148438 177.589844 241.890625 177.589844 255.171875 C 177.589844 268.628906 186.207031 290.011719 190.125 299.039062 C 190.847656 300.699219 193.203125 300.699219 193.921875 299.039062 C 197.839844 290.011719 206.457031 268.628906 206.457031 255.171875 C 206.457031 241.894531 198.074219 237.148438 194.085938 235.640625 Z M 235.921875 238.039062 C 235.828125 245.238281 235.652344 252.125 235.464844 257.953125 L 235.808594 257.957031 L 235.800781 259.398438 L 235.417969 259.394531 C 235.347656 261.472656 235.277344 263.398438 235.210938 265.132812 L 235.210938 289.054688 L 228.535156 289.054688 C 230.460938 294.28125 232.375 298.875 233.726562 301.992188 C 234.449219 303.652344 236.804688 303.652344 237.527344 301.992188 C 241.445312 292.960938 250.058594 271.585938 250.058594 258.128906 C 250.058594 242.164062 237.945312 238.535156 235.921875 238.039062 Z M 306.269531 247.8125 L 312.679688 222.652344 C 312.789062 222.121094 312.53125 221.582031 312.050781 221.332031 L 300.332031 215.234375 C 300.070312 216.015625 299.75 216.710938 299.339844 217.28125 C 297.730469 220.453125 296.429688 219.113281 296.429688 219.113281 C 294.5 221.605469 293.636719 220.023438 293.636719 220.023438 C 291.648438 220.902344 291.589844 219.289062 291.589844 219.289062 L 291.554688 219.289062 C 290.765625 219.3125 290.28125 218.433594 290.699219 217.765625 L 292.230469 215.328125 L 293.316406 211.597656 L 291.75 210.8125 L 291.773438 210.78125 L 278.621094 203.9375 C 277.90625 203.566406 277.035156 203.984375 276.875 204.773438 L 270.441406 230.363281 C 270.332031 230.898438 270.59375 231.4375 271.078125 231.683594 L 304.535156 248.648438 C 305.246094 249.011719 306.109375 248.597656 306.269531 247.8125 Z M 183.804688 142.640625 C 180.371094 146.144531 176.199219 150.609375 171.953125 155.621094 C 175.84375 157.816406 182.546875 160.425781 192.421875 160.425781 C 200.125 160.425781 207.066406 158.917969 212.503906 156.070312 C 208.128906 150.875 203.804688 146.25 200.269531 142.640625 C 195.753906 138.023438 188.324219 138.023438 183.804688 142.640625 Z M 349.644531 306.796875 C 349.644531 306.230469 349.660156 305.625 349.6875 304.996094 L 338.578125 305.121094 C 336.316406 307.496094 331.609375 310.324219 327.890625 312.128906 L 327.898438 312.144531 L 327.890625 312.128906 C 327.859375 312.144531 327.835938 312.15625 327.804688 312.171875 C 327.558594 312.25 327.316406 312.34375 327.082031 312.453125 C 327.007812 312.488281 326.941406 312.542969 326.878906 312.605469 C 326.628906 312.71875 326.382812 312.832031 326.148438 312.933594 C 326.125 312.941406 326.105469 312.953125 326.082031 312.964844 C 326.066406 310.910156 325.859375 308.3125 325.105469 305.992188 C 325.105469 305.726562 325.109375 305.453125 325.113281 305.167969 L 313.070312 305.234375 C 310.601562 307.390625 306.597656 309.746094 303.347656 311.324219 C 302.738281 311.621094 302.152344 311.894531 301.609375 312.128906 C 299.222656 313.160156 298.621094 314.355469 298.46875 315.503906 C 298.386719 316.109375 298.863281 316.644531 299.472656 316.644531 L 323.027344 316.644531 C 323.121094 317.097656 323.519531 317.449219 324.015625 317.449219 L 349.527344 317.449219 C 350.058594 317.449219 350.496094 317.042969 350.535156 316.515625 C 350.570312 316.082031 350.601562 315.515625 350.617188 314.859375 C 350.664062 312.703125 350.539062 309.550781 349.644531 306.796875 Z M 77.003906 183.625 C 76.796875 179.238281 76.222656 169.011719 75.183594 165.207031 C 73.515625 159.113281 72.820312 156.929688 72.121094 151.917969 C 71.496094 147.464844 71.105469 144.859375 69.148438 140.441406 C 69.066406 140.824219 68.945312 141.199219 68.761719 141.550781 C 68.140625 142.734375 66.972656 143.476562 65.292969 143.757812 C 64.511719 143.886719 63.765625 143.945312 63.050781 143.945312 C 59.484375 143.945312 56.742188 142.46875 54.824219 140.898438 C 55.851562 144.367188 57.804688 148.523438 58.375 152.207031 C 60.003906 162.714844 58.871094 164.746094 61.257812 170.832031 C 62.878906 174.953125 63.980469 182.226562 63.625 186.574219 C 69.039062 186.304688 73.5 185.089844 77.003906 183.625 Z M 65.171875 143.046875 C 66.617188 142.804688 67.609375 142.1875 68.121094 141.21875 C 68.457031 140.578125 68.558594 139.84375 68.539062 139.121094 C 67.925781 137.832031 67.191406 136.390625 66.289062 134.714844 C 66.28125 134.714844 66.277344 134.710938 66.269531 134.707031 L 66.570312 135.855469 C 66.023438 143.253906 59.042969 139.421875 56.003906 137.355469 C 55.335938 136.902344 54.953125 136.136719 55 135.328125 L 55.023438 134.871094 C 54.980469 134.890625 54.9375 134.910156 54.890625 134.929688 C 54 136.046875 54.03125 137.707031 54.492188 139.664062 C 56.621094 141.664062 60.199219 143.875 65.171875 143.046875 Z M 239.109375 143.046875 C 241.855469 137.433594 244.578125 123.195312 244.957031 117.660156 C 244.984375 117.234375 245 116.855469 245 116.539062 C 245 112.820312 242.65625 110.878906 239.515625 109.28125 C 237.566406 108.292969 235.304688 107.4375 233.109375 106.371094 C 225.9375 102.902344 209.347656 97.203125 209.347656 97.203125 C 206.019531 95.058594 202.257812 93.097656 200.414062 92.164062 C 200.175781 90.882812 199.804688 89.566406 199.257812 89.296875 C 198.140625 88.742188 195.824219 91.054688 193.269531 91.582031 C 190.710938 92.109375 189.097656 90.453125 188.304688 90.644531 C 187.828125 90.757812 187.53125 92.082031 187.367188 93.132812 C 186.640625 93.417969 185.820312 93.75 184.964844 94.125 C 182.375 95.261719 179.476562 96.773438 177.828125 98.402344 C 172.941406 99.792969 162.507812 108.359375 162.1875 104.171875 C 161.898438 100.414062 161.976562 95.566406 161.335938 91.835938 L 150.859375 90.941406 C 150.308594 90.894531 149.78125 90.609375 149.394531 90.207031 C 149.273438 90.492188 149.15625 90.78125 149.058594 91.097656 C 147.570312 95.910156 149.226562 107.664062 148.800781 111.289062 C 148.625 112.792969 148.773438 114.902344 149.511719 116.851562 C 150.546875 119.589844 152.746094 122.019531 156.84375 122.019531 C 157.164062 122.019531 157.492188 122.003906 157.828125 121.972656 C 165.460938 121.335938 176.707031 113.246094 177.59375 112.601562 L 212.207031 112.601562 C 215.71875 113.929688 225.722656 117.796875 227.253906 119.316406 C 229.117188 121.160156 225.5625 139.425781 227.429688 143.761719 C 229.554688 148.691406 235.421875 150.59375 239.109375 143.046875 Z M 239.109375 143.046875 " fill-opacity="1" fill-rule="nonzero"/></g><path fill="#f5c0a2" d="M 79.457031 301.265625 C 75.035156 305.769531 68.492188 303.273438 68.492188 303.273438 L 68.492188 303.277344 C 68.492188 303.277344 68.492188 303.273438 68.492188 303.273438 C 68.890625 301.542969 69.015625 299.59375 68.980469 297.597656 L 79.375 297.597656 C 79.359375 298.914062 79.378906 300.171875 79.457031 301.265625 Z M 43.304688 302.402344 C 43.304688 302.402344 43.304688 302.40625 43.304688 302.40625 C 43.304688 302.40625 43.304688 302.402344 43.304688 302.402344 C 43.304688 302.402344 44.484375 303.578125 46.417969 302.402344 C 48.4375 301.179688 51.507812 299.824219 52.289062 302.039062 C 52.316406 300.644531 52.425781 299.089844 52.566406 297.597656 L 43.351562 297.597656 C 43.351562 299.070312 43.34375 300.707031 43.304688 302.402344 Z M 147.851562 80.953125 C 147.851562 80.953125 147.476562 79.683594 147.855469 79.675781 C 148.234375 79.667969 149.90625 80.625 150.746094 80.113281 C 151.589844 79.601562 150.867188 79.09375 150.867188 79.09375 C 149.410156 78.667969 147.917969 76.730469 146.988281 77.195312 C 146.058594 77.660156 144.535156 78.226562 144.695312 79.078125 C 144.859375 79.929688 145.441406 81.40625 145.441406 81.40625 C 145.441406 81.40625 145.035156 81.851562 145.273438 82.640625 C 145.507812 83.425781 146.296875 83.605469 146.296875 83.605469 C 146.296875 83.605469 145.804688 84.007812 145.828125 84.65625 C 145.847656 85.300781 147.476562 86.242188 147.476562 86.242188 C 147.476562 86.242188 147.078125 87.214844 147.441406 87.625 C 147.804688 88.039062 148.75 88.488281 149.746094 88.316406 C 150.746094 88.140625 151.4375 87.835938 151.4375 86.859375 C 151.433594 85.886719 149.664062 85.753906 149.664062 85.753906 C 149.664062 85.753906 153.011719 84.957031 152.382812 84.285156 C 151.753906 83.613281 149.101562 83.523438 149.101562 83.523438 C 149.101562 83.523438 153.640625 82.917969 152.992188 81.953125 C 152.34375 80.992188 147.851562 80.953125 147.851562 80.953125 Z M 235.453125 147.226562 C 235.160156 146.417969 235.085938 145.34375 235.101562 144.363281 C 235.128906 142.511719 233.761719 140.863281 231.910156 140.773438 C 231.386719 140.75 230.902344 140.828125 230.546875 141.085938 C 229.8125 141.625 229.273438 143.050781 228.871094 144.449219 C 228.414062 145.078125 226.789062 147.375 226.664062 148.429688 C 226.523438 149.652344 225.65625 151.417969 226.464844 151.585938 C 226.832031 151.660156 227.234375 151.253906 227.570312 150.785156 C 227.523438 151.304688 227.484375 151.84375 227.453125 152.390625 C 227.335938 154.328125 227.8125 155.332031 228.300781 156.765625 C 228.792969 158.203125 230.503906 160.039062 230.921875 159.085938 C 231.335938 158.152344 229.78125 156.625 229.714844 154.921875 C 229.652344 153.222656 229.835938 152.199219 229.835938 152.199219 C 230.09375 153.453125 230.222656 154.648438 231.890625 156.675781 C 233.554688 158.699219 235.074219 158.558594 234.929688 157.8125 C 234.785156 157.066406 234.535156 156.390625 233.304688 154.972656 C 232.074219 153.550781 231.875 151.320312 231.875 151.320312 C 232.191406 152.410156 234.253906 155.792969 235.675781 156.238281 C 237.09375 156.6875 237.273438 155.453125 236.332031 154.433594 C 235.390625 153.417969 234.210938 150.101562 234.210938 150.101562 C 234.210938 150.101562 235.289062 151.714844 236.242188 152.722656 C 236.390625 152.878906 237.742188 153.960938 237.625 152.359375 C 237.542969 151.273438 236.164062 149.171875 235.453125 147.226562 Z M 296.734375 154.003906 L 292.6875 142.410156 L 291.617188 142.792969 L 287.730469 144.179688 L 257.21875 144.5 C 257.21875 144.5 253.695312 143.207031 250.207031 145.917969 C 247.601562 147.9375 244.816406 150.445312 243.570312 151.59375 C 243.25 151.886719 243.433594 152.429688 243.867188 152.457031 C 244.855469 152.523438 246.609375 152.246094 249.265625 150.480469 L 250.621094 152.457031 C 251.074219 152.941406 251.746094 153.160156 252.398438 153.027344 C 253.078125 152.890625 253.980469 152.660156 254.820312 152.296875 C 255.402344 152.046875 255.675781 151.386719 255.476562 150.789062 L 255.402344 150.570312 C 255.808594 150.253906 255.988281 150.085938 255.988281 150.085938 L 286.953125 155.195312 C 287.988281 155.367188 289.046875 155.363281 290.085938 155.175781 L 293.480469 154.578125 Z M 315.917969 118.296875 C 316.78125 117.589844 317.964844 115.847656 316.699219 114.242188 C 315.753906 113.039062 314.558594 113.527344 313.929688 114.101562 C 313.332031 114.648438 313.050781 115.617188 313.050781 115.617188 C 310.914062 114.277344 311.523438 111.0625 311.523438 111.0625 C 310.621094 110.007812 310.007812 109.015625 309.621094 108.09375 C 304.605469 124.410156 312.949219 123.726562 312.949219 123.726562 L 314.425781 127.601562 C 314.523438 126.605469 314.925781 125.613281 315.890625 124.671875 C 318.582031 122.046875 314.550781 119.410156 315.917969 118.296875 Z M 302.023438 159.925781 L 300.632812 174.644531 L 295.632812 206.035156 L 291.75 210.8125 L 293.316406 211.597656 L 292.230469 215.328125 L 290.699219 217.765625 C 290.28125 218.433594 290.765625 219.3125 291.554688 219.289062 L 291.589844 219.289062 C 291.589844 219.289062 291.648438 220.902344 293.636719 220.023438 C 293.636719 220.023438 294.5 221.605469 296.429688 219.113281 C 296.429688 219.113281 297.726562 220.453125 299.339844 217.28125 C 299.792969 216.652344 300.140625 215.875 300.414062 214.992188 L 301.398438 207.742188 L 310.53125 176.234375 L 313.121094 164.167969 L 313.800781 160.996094 L 302.203125 158.039062 Z M 50.5 189.894531 C 50.070312 189.652344 49.238281 189.855469 48.40625 190.179688 C 46.875 190.78125 45.707031 192.066406 45.21875 193.640625 C 44.726562 195.222656 44.1875 197.191406 44.277344 197.9375 C 44.441406 199.269531 47.929688 200.289062 47.722656 200.421875 C 47.53125 200.542969 46.21875 199.867188 45.957031 200.789062 C 45.726562 201.585938 49.863281 202.589844 50.371094 202.015625 C 50.875 201.445312 49.214844 198.003906 49.214844 198.003906 C 49.214844 198.003906 54.777344 201.730469 54.613281 200.296875 C 54.515625 199.421875 51.414062 196.53125 51.414062 196.53125 C 51.414062 196.53125 56.976562 199.710938 57.796875 198.980469 C 58.617188 198.25 53.632812 194.644531 53.632812 194.644531 C 53.632812 194.644531 59.621094 197.027344 59.128906 195.71875 C 58.636719 194.40625 51.554688 190.496094 50.5 189.894531 Z M 98.367188 160.925781 C 98.367188 160.925781 96.9375 163.050781 95.644531 165.234375 C 94.703125 166.097656 93.210938 167.582031 92.871094 168.640625 C 92.511719 169.746094 93.339844 171.007812 93.863281 171.664062 C 94.191406 174.105469 94.792969 177.738281 95.742188 178.464844 C 97.039062 179.457031 95.957031 172.503906 95.957031 172.503906 C 95.957031 172.503906 96.976562 178.867188 98.152344 179.300781 C 99.097656 179.648438 98.742188 174.878906 98.566406 173 C 98.734375 174.496094 99.210938 177.734375 100.160156 177.632812 C 101.023438 177.539062 101.332031 171.886719 101.332031 171.886719 C 101.332031 171.886719 101.496094 176.859375 102.691406 176.519531 C 103.058594 176.414062 103.742188 170.394531 103.742188 170.394531 C 103.742188 170.394531 103.523438 166.195312 103.351562 163.53125 C 103.179688 160.867188 98.367188 160.925781 98.367188 160.925781 Z M 64.867188 129.394531 C 69.300781 128.964844 71.140625 126.363281 70.011719 119.695312 C 69.386719 116.003906 69.960938 113.550781 69.523438 111.855469 C 68.3125 111.554688 66.207031 110.300781 63.882812 110.4375 C 63.609375 112.027344 62.496094 115.765625 58.082031 116.785156 C 58.214844 117.816406 58.246094 118.796875 58.050781 119.550781 C 57.191406 118.589844 55.941406 117.5 54.871094 117.761719 C 53.03125 118.214844 52.980469 119.898438 53.335938 121.570312 C 53.570312 122.648438 54.210938 123.902344 55.25 124.496094 C 55.351562 124.621094 55.457031 124.746094 55.566406 124.871094 L 55 135.328125 C 54.953125 136.136719 55.335938 136.902344 56.003906 137.355469 C 59.042969 139.421875 66.023438 143.253906 66.570312 135.851562 L 65.679688 132.480469 Z M 181.621094 74.914062 C 181.851562 76.246094 182.121094 77.859375 182.105469 79.882812 C 182.058594 86.71875 184.316406 89.019531 188.808594 88.730469 L 188.625 90.652344 C 189.496094 90.820312 191.015625 92.046875 193.265625 91.582031 C 195.503906 91.121094 197.554688 89.296875 198.78125 89.214844 L 197.359375 82.710938 C 197.558594 82.390625 197.738281 82.085938 197.898438 81.792969 C 199.0625 81.101562 199.59375 79.570312 199.65625 78.339844 C 199.742188 76.609375 199.417969 74.9375 197.507812 74.785156 C 196.875 74.734375 196.257812 75.132812 195.714844 75.683594 C 191.277344 75.933594 184.417969 69.671875 184.417969 69.671875 C 183.445312 68.609375 181.402344 70.855469 181.621094 74.914062 C 181.621094 74.910156 181.621094 74.910156 181.621094 74.914062 Z M 181.621094 74.914062 " fill-opacity="1" fill-rule="nonzero"/><g clip-path="url(#id3)"><path fill="#000000" d="M 55.058594 134.191406 C 53.105469 134.140625 51.289062 134.0625 49.769531 133.980469 L 49.445312 128.824219 L 47.933594 133.875 C 46.285156 133.769531 45.277344 133.6875 45.277344 133.6875 C 43.871094 126.761719 47.199219 112.78125 47.199219 112.78125 C 47.199219 112.78125 47.210938 112.777344 47.214844 112.777344 C 47.703125 110.167969 49.09375 107.71875 51.535156 106.191406 C 53.089844 105.21875 55.1875 105.578125 56.011719 104.894531 C 61.292969 100.507812 67.375 104.457031 70.167969 107.304688 C 71.207031 108.363281 71.671875 109.402344 71.804688 110.425781 C 72.144531 111.9375 71.625 114.453125 71.265625 119.984375 C 70.738281 128.167969 73.613281 132.820312 73.613281 132.820312 C 71.730469 133.460938 69.050781 133.832031 66.089844 134.039062 L 65.679688 132.476562 L 64.867188 129.394531 C 69.296875 128.964844 71.140625 126.359375 70.011719 119.695312 C 69.386719 116.003906 69.960938 113.550781 69.523438 111.855469 C 68.3125 111.554688 66.207031 110.300781 63.882812 110.4375 C 63.609375 112.023438 62.496094 115.765625 58.078125 116.785156 C 58.214844 117.816406 58.242188 118.796875 58.050781 119.550781 C 57.191406 118.589844 55.941406 117.5 54.871094 117.761719 C 53.03125 118.210938 52.980469 119.898438 53.335938 121.570312 C 53.566406 122.648438 54.207031 123.898438 55.246094 124.496094 C 55.347656 124.617188 55.457031 124.746094 55.566406 124.871094 Z M 108.890625 160.925781 C 107.722656 165.027344 105.808594 166.964844 103.601562 167.75 C 103.527344 166.40625 103.433594 164.796875 103.351562 163.53125 C 103.183594 160.867188 98.367188 160.921875 98.367188 160.921875 C 98.367188 160.921875 96.9375 163.050781 95.644531 165.234375 C 95.316406 165.53125 94.925781 165.910156 94.535156 166.3125 C 92.164062 162.386719 94.535156 150.761719 92.3125 149.960938 C 90.515625 149.316406 84.414062 149.667969 80.863281 149.941406 C 81.09375 150.875 81.320312 152.164062 81.523438 154.0625 C 81.988281 158.363281 82.878906 162.257812 83.535156 165.328125 C 84.015625 167.566406 86.398438 170.609375 88.671875 174.335938 C 89.523438 175.726562 90.066406 176.945312 89.980469 177.773438 C 89.808594 179.472656 86.683594 181.535156 83.472656 183.136719 L 83.472656 198.074219 L 84.613281 244.34375 L 79.730469 297.597656 L 68.398438 297.597656 C 66.820312 286.40625 63.328125 260.601562 66.941406 244.570312 C 67.382812 242.605469 67.621094 240.582031 67.667969 238.523438 L 72.210938 204.085938 L 77.113281 199.425781 C 77.257812 199.289062 77.265625 199.058594 77.128906 198.917969 C 76.992188 198.769531 76.761719 198.769531 76.617188 198.902344 L 71.53125 203.738281 L 67.496094 234.3125 C 67.492188 234.289062 67.492188 234.261719 67.488281 234.238281 L 66.011719 244.34375 L 53.691406 297.597656 L 42.355469 297.597656 C 42.355469 286.40625 41.25 260.605469 47.125 244.570312 C 48.53125 240.734375 49.210938 236.671875 49.148438 232.585938 L 48.589844 203 C 48.589844 202.691406 48.605469 202.382812 48.617188 202.078125 C 48.699219 202.089844 48.777344 202.101562 48.855469 202.113281 C 48.890625 202.121094 48.925781 202.125 48.960938 202.128906 C 49.03125 202.140625 49.097656 202.148438 49.167969 202.15625 C 49.210938 202.160156 49.253906 202.164062 49.296875 202.167969 C 49.355469 202.171875 49.414062 202.175781 49.472656 202.179688 C 49.5625 202.183594 49.648438 202.1875 49.730469 202.183594 C 49.765625 202.183594 49.792969 202.183594 49.824219 202.179688 C 49.878906 202.175781 49.933594 202.171875 49.984375 202.164062 C 50.011719 202.164062 50.039062 202.15625 50.0625 202.152344 C 50.113281 202.144531 50.152344 202.132812 50.191406 202.117188 C 50.210938 202.113281 50.230469 202.105469 50.246094 202.097656 C 50.296875 202.078125 50.339844 202.050781 50.371094 202.019531 C 50.371094 202.019531 50.371094 202.019531 50.371094 202.015625 C 50.433594 201.945312 50.464844 201.828125 50.464844 201.679688 C 50.46875 201.605469 50.460938 201.523438 50.453125 201.433594 C 50.441406 201.34375 50.425781 201.25 50.402344 201.148438 C 50.277344 200.542969 49.980469 199.757812 49.714844 199.121094 C 49.558594 198.757812 49.421875 198.445312 49.328125 198.246094 C 49.300781 198.183594 49.277344 198.132812 49.257812 198.09375 C 49.234375 198.039062 49.214844 198.003906 49.214844 198.003906 C 49.214844 198.003906 49.757812 198.367188 50.5 198.824219 C 50.648438 198.914062 50.804688 199.011719 50.964844 199.105469 C 52.582031 200.074219 54.714844 201.191406 54.613281 200.296875 C 54.582031 200.023438 54.257812 199.550781 53.828125 199.035156 C 53.570312 198.722656 53.269531 198.394531 52.976562 198.085938 C 52.1875 197.25 51.414062 196.527344 51.414062 196.527344 C 51.414062 196.527344 56.976562 199.707031 57.796875 198.980469 C 57.847656 198.933594 57.878906 198.875 57.886719 198.808594 C 58.011719 197.8125 53.632812 194.644531 53.632812 194.644531 C 53.632812 194.644531 56.460938 195.769531 58.070312 196.050781 C 58.507812 196.125 58.859375 196.136719 59.03125 196.046875 C 59.039062 196.042969 59.039062 196.039062 59.042969 196.035156 C 59.09375 196.007812 59.132812 195.96875 59.148438 195.921875 C 59.164062 195.867188 59.160156 195.800781 59.128906 195.714844 C 59.101562 195.640625 59.042969 195.554688 58.976562 195.464844 C 58.957031 195.4375 58.929688 195.410156 58.90625 195.378906 C 58.847656 195.3125 58.78125 195.238281 58.703125 195.164062 C 58.671875 195.132812 58.640625 195.097656 58.601562 195.0625 C 58.511719 194.980469 58.410156 194.890625 58.300781 194.796875 C 58.269531 194.773438 58.242188 194.75 58.214844 194.722656 C 58.066406 194.601562 57.90625 194.476562 57.730469 194.347656 C 57.707031 194.328125 57.679688 194.3125 57.65625 194.292969 C 57.503906 194.179688 57.347656 194.066406 57.179688 193.949219 C 57.128906 193.910156 57.074219 193.875 57.023438 193.839844 C 56.871094 193.734375 56.714844 193.625 56.550781 193.519531 C 56.5 193.484375 56.449219 193.449219 56.398438 193.414062 C 56.195312 193.28125 55.992188 193.148438 55.78125 193.015625 C 55.769531 193.007812 55.761719 193 55.75 192.996094 C 55.527344 192.851562 55.300781 192.710938 55.074219 192.570312 C 55.007812 192.527344 54.941406 192.488281 54.875 192.449219 C 54.71875 192.351562 54.5625 192.253906 54.40625 192.160156 C 54.320312 192.109375 54.238281 192.058594 54.15625 192.007812 C 54.011719 191.921875 53.875 191.839844 53.734375 191.757812 C 53.652344 191.707031 53.570312 191.65625 53.484375 191.609375 C 53.335938 191.519531 53.191406 191.4375 53.046875 191.351562 C 52.871094 191.25 52.703125 191.152344 52.539062 191.054688 C 52.476562 191.019531 52.414062 190.984375 52.355469 190.949219 C 52.214844 190.867188 52.082031 190.789062 51.949219 190.714844 C 51.949219 190.714844 51.949219 190.714844 51.945312 190.714844 C 51.265625 190.324219 50.730469 190.027344 50.5 189.894531 C 50.070312 189.652344 49.238281 189.855469 48.40625 190.179688 C 46.875 190.78125 45.707031 192.066406 45.21875 193.640625 C 44.726562 195.222656 44.1875 197.191406 44.277344 197.9375 C 44.339844 198.429688 44.855469 198.882812 45.472656 199.261719 C 43.558594 201.054688 40.917969 200.714844 37.828125 197.507812 C 34.234375 193.785156 30.972656 189.496094 25.226562 182.558594 C 19.484375 175.625 19.074219 174.328125 25.351562 162.105469 C 30.933594 151.230469 39.589844 142.980469 42.019531 140.789062 C 42.183594 140.621094 42.378906 140.453125 42.585938 140.285156 C 42.640625 140.238281 42.679688 140.207031 42.679688 140.207031 C 42.679688 140.207031 42.679688 140.210938 42.679688 140.210938 C 44.898438 138.480469 49.230469 136.816406 52.09375 135.832031 C 53.734375 135.269531 54.890625 134.929688 54.890625 134.929688 C 54 136.046875 54.03125 137.707031 54.488281 139.664062 C 56.621094 141.664062 60.199219 143.875 65.171875 143.046875 C 66.617188 142.804688 67.609375 142.1875 68.121094 141.21875 C 68.457031 140.578125 68.558594 139.84375 68.539062 139.121094 C 67.914062 137.804688 67.164062 136.332031 66.238281 134.617188 C 66.238281 134.617188 68.605469 135.28125 70.882812 135.890625 C 72.152344 136.230469 73.527344 136.574219 74.730469 136.820312 C 78.917969 137.296875 85.777344 137.984375 91.160156 138.058594 C 97.832031 138.152344 103.144531 139.265625 107.960938 143.34375 C 112.78125 147.417969 110.910156 153.824219 108.890625 160.925781 Z M 47.039062 163.925781 C 44 167.882812 38.679688 172.460938 38.753906 173.367188 C 38.867188 174.75 42.871094 178.9375 46.324219 182.640625 C 46.675781 181.515625 47.085938 180.289062 47.523438 178.957031 C 48.851562 174.898438 48.390625 168.949219 47.039062 163.925781 Z M 77.003906 183.613281 C 76.796875 179.226562 76.222656 169.007812 75.183594 165.207031 C 73.515625 159.113281 72.820312 156.929688 72.121094 151.917969 C 71.496094 147.464844 71.105469 144.859375 69.148438 140.441406 C 69.066406 140.824219 68.945312 141.199219 68.761719 141.550781 C 68.140625 142.734375 66.972656 143.476562 65.292969 143.757812 C 64.511719 143.886719 63.765625 143.945312 63.050781 143.945312 C 59.484375 143.945312 56.742188 142.46875 54.824219 140.898438 C 55.851562 144.367188 57.804688 148.523438 58.375 152.207031 C 60.003906 162.714844 58.871094 164.746094 61.257812 170.832031 C 62.875 174.949219 63.976562 182.210938 63.625 186.558594 C 69.039062 186.292969 73.5 185.078125 77.003906 183.613281 Z M 152.992188 81.953125 C 153.640625 82.917969 149.101562 83.523438 149.101562 83.523438 C 149.101562 83.523438 151.753906 83.613281 152.382812 84.285156 C 153.011719 84.957031 149.664062 85.753906 149.664062 85.753906 C 149.664062 85.753906 151.429688 85.890625 151.4375 86.863281 C 151.4375 87.835938 150.746094 88.140625 149.746094 88.316406 C 149.367188 88.382812 148.996094 88.359375 148.664062 88.277344 L 148.804688 89.121094 C 148.964844 90.042969 149.882812 90.859375 150.855469 90.941406 L 166.347656 92.261719 C 167.320312 92.347656 167.984375 91.667969 167.828125 90.746094 L 164.300781 70.101562 C 164.144531 69.179688 163.226562 68.363281 162.25 68.28125 L 146.761719 66.957031 C 145.785156 66.875 145.121094 67.554688 145.28125 68.476562 L 146.785156 77.292969 C 146.855469 77.257812 146.925781 77.226562 146.988281 77.195312 C 147.917969 76.730469 149.410156 78.667969 150.867188 79.09375 C 150.867188 79.09375 151.59375 79.601562 150.746094 80.113281 C 149.902344 80.625 148.234375 79.667969 147.855469 79.675781 C 147.476562 79.683594 147.851562 80.953125 147.851562 80.953125 C 147.851562 80.953125 152.34375 80.992188 152.992188 81.953125 Z M 178.566406 264.28125 L 160.0625 264.28125 C 160.019531 262.800781 159.96875 261.019531 159.917969 258.988281 L 177.800781 259.085938 C 177.75 258.597656 177.710938 258.117188 177.679688 257.644531 L 159.878906 257.546875 C 159.421875 239.71875 158.78125 206.195312 160.144531 196.652344 C 162.023438 183.5 177.980469 158.609375 178.140625 158.363281 C 178.234375 158.214844 178.265625 158.039062 178.230469 157.867188 C 178.191406 157.695312 178.089844 157.550781 177.945312 157.457031 C 177.640625 157.265625 177.234375 157.351562 177.039062 157.65625 C 176.375 158.691406 160.742188 183.214844 158.851562 196.46875 C 157.484375 206.035156 158.117188 239.648438 158.574219 257.539062 L 148.445312 257.484375 L 148.4375 258.929688 L 158.613281 258.984375 C 158.667969 261.011719 158.714844 262.796875 158.757812 264.28125 L 148.835938 264.28125 L 148.835938 289.054688 L 186.042969 289.054688 C 183.203125 281.652344 180.101562 272.46875 178.566406 264.28125 Z M 192.023438 193.5 C 185.050781 193.5 179.375 199.175781 179.375 206.148438 C 179.375 213.121094 185.050781 218.796875 192.023438 218.796875 C 198.996094 218.796875 204.667969 213.121094 204.667969 206.148438 C 204.667969 199.175781 198.996094 193.5 192.023438 193.5 Z M 225.269531 196.46875 C 223.359375 183.078125 207.242188 157.910156 207.082031 157.65625 C 206.886719 157.351562 206.480469 157.261719 206.175781 157.460938 C 206.03125 157.554688 205.929688 157.699219 205.890625 157.871094 C 205.855469 158.039062 205.886719 158.214844 205.980469 158.363281 C 206.140625 158.613281 222.097656 183.503906 223.976562 196.652344 C 225.339844 206.1875 224.746094 240.136719 224.320312 257.894531 L 206.359375 257.796875 C 206.324219 258.269531 206.28125 258.753906 206.230469 259.238281 L 224.285156 259.335938 C 224.242188 261.222656 224.195312 262.886719 224.160156 264.28125 L 205.480469 264.28125 C 203.945312 272.46875 200.84375 281.652344 198.003906 289.054688 L 235.210938 289.054688 L 235.210938 264.28125 L 225.46875 264.28125 C 225.503906 262.886719 225.546875 261.222656 225.59375 259.34375 L 235.800781 259.398438 L 235.808594 257.957031 L 225.632812 257.902344 C 226.058594 240.121094 226.65625 206.164062 225.269531 196.46875 Z M 192.023438 224.789062 C 181.730469 224.789062 173.386719 216.445312 173.386719 206.148438 C 173.386719 195.851562 181.730469 187.507812 192.023438 187.507812 C 202.316406 187.507812 210.664062 195.851562 210.664062 206.148438 C 210.664062 216.445312 202.316406 224.789062 192.023438 224.789062 Z M 205.390625 206.148438 C 205.390625 198.777344 199.394531 192.777344 192.023438 192.777344 C 184.652344 192.777344 178.65625 198.777344 178.65625 206.148438 C 178.65625 213.519531 184.652344 219.519531 192.023438 219.519531 C 199.394531 219.519531 205.390625 213.519531 205.390625 206.148438 Z M 313.050781 115.621094 C 313.050781 115.621094 313.332031 114.648438 313.929688 114.101562 C 314.558594 113.527344 315.753906 113.039062 316.699219 114.242188 C 317.964844 115.847656 316.78125 117.589844 315.917969 118.296875 C 314.550781 119.410156 318.582031 122.046875 315.890625 124.675781 C 312.167969 128.304688 316.804688 132.699219 314.980469 135.125 C 313.15625 137.554688 311.730469 141.722656 312.816406 145.683594 C 313.917969 149.699219 321.324219 157.527344 337.054688 152.464844 C 345.542969 149.734375 355.855469 139.519531 348.214844 134.140625 C 346.382812 132.851562 343.890625 133.988281 343.644531 126.25 C 343.390625 118.238281 334.152344 120.035156 334.117188 115.039062 C 334.070312 108.300781 328.449219 96.476562 314.507812 99.683594 C 311.640625 100.34375 305.78125 104.328125 311.523438 111.066406 C 311.523438 111.066406 310.914062 114.277344 313.050781 115.621094 Z M 256.546875 148.957031 C 254.59375 150.566406 252.117188 152.039062 251.507812 151.617188 C 251.453125 151.578125 251.433594 151.542969 251.433594 151.476562 C 251.40625 150.785156 253.085938 149.09375 254.285156 148.117188 C 254.429688 148 254.460938 147.789062 254.355469 147.632812 C 254.25 147.480469 254.042969 147.433594 253.878906 147.523438 L 249.191406 150.144531 C 249.015625 150.242188 248.953125 150.460938 249.050781 150.636719 C 249.148438 150.808594 249.371094 150.871094 249.542969 150.773438 L 251.757812 149.535156 C 251.167969 150.21875 250.691406 150.945312 250.710938 151.503906 C 250.722656 151.796875 250.855469 152.039062 251.09375 152.207031 C 251.277344 152.339844 251.511719 152.394531 251.773438 152.394531 C 253.363281 152.394531 256.101562 150.257812 257.007812 149.511719 C 257.160156 149.386719 257.183594 149.160156 257.054688 149.007812 C 256.925781 148.851562 256.699219 148.828125 256.546875 148.957031 Z M 326.476562 223.980469 L 325.273438 242.40625 C 325.261719 242.59375 325.101562 242.742188 324.914062 242.742188 C 324.90625 242.742188 324.898438 242.742188 324.890625 242.742188 C 324.855469 242.738281 324.820312 242.726562 324.785156 242.714844 L 336.179688 305.148438 L 353.761719 304.949219 L 344.050781 234.5 L 345.410156 188.296875 C 331.996094 193.023438 314.730469 192.503906 306.011719 191.828125 L 303.941406 198.960938 L 303.25 216.753906 L 312.050781 221.332031 C 312.53125 221.582031 312.789062 222.121094 312.679688 222.648438 L 306.269531 247.8125 C 306.109375 248.59375 305.246094 249.011719 304.535156 248.648438 L 304.148438 248.453125 L 311.199219 305.246094 L 328.9375 305.148438 L 324.371094 240.433594 L 324.597656 241.683594 L 325.765625 223.765625 L 325.808594 223.691406 C 325.882812 223.566406 333.046875 211.191406 334.625 205.667969 C 334.679688 205.476562 334.878906 205.363281 335.070312 205.417969 C 335.261719 205.472656 335.371094 205.671875 335.316406 205.863281 C 333.761719 211.3125 327.132812 222.847656 326.476562 223.980469 Z M 180.039062 113.046875 C 180.054688 113.046875 180.070312 113.046875 180.085938 113.046875 C 180.265625 113.046875 180.421875 112.917969 180.445312 112.734375 L 181.382812 105.628906 C 181.410156 105.429688 181.269531 105.25 181.074219 105.222656 C 180.878906 105.199219 180.695312 105.335938 180.667969 105.53125 L 179.730469 112.640625 C 179.703125 112.839844 179.84375 113.019531 180.039062 113.046875 Z M 209.773438 112.371094 C 209.816406 112.535156 209.960938 112.648438 210.125 112.648438 C 210.152344 112.648438 210.179688 112.644531 210.210938 112.636719 C 210.402344 112.589844 210.523438 112.394531 210.476562 112.203125 L 208.867188 105.496094 C 208.820312 105.300781 208.625 105.179688 208.433594 105.230469 C 208.238281 105.273438 208.117188 105.46875 208.164062 105.664062 Z M 181.082031 96.058594 C 182.324219 95.34375 183.683594 94.6875 184.964844 94.125 C 185.820312 93.75 186.636719 93.417969 187.367188 93.136719 C 187.53125 92.082031 187.828125 90.757812 188.300781 90.644531 C 188.398438 90.621094 188.503906 90.625 188.625 90.648438 L 188.808594 88.730469 C 184.316406 89.019531 182.058594 86.71875 182.105469 79.882812 C 182.121094 77.859375 181.851562 76.246094 181.621094 74.910156 C 181.402344 70.851562 183.445312 68.605469 184.417969 69.667969 C 184.417969 69.667969 191.277344 75.929688 195.714844 75.683594 C 196.257812 75.128906 196.875 74.734375 197.507812 74.785156 C 199.417969 74.9375 199.742188 76.609375 199.65625 78.335938 C 199.648438 78.507812 199.628906 78.683594 199.601562 78.863281 C 199.59375 78.898438 199.585938 78.9375 199.578125 78.972656 C 199.554688 79.117188 199.527344 79.261719 199.488281 79.40625 C 199.246094 80.355469 198.742188 81.292969 197.898438 81.792969 C 197.738281 82.085938 197.558594 82.386719 197.359375 82.710938 L 198.78125 89.214844 C 198.957031 89.203125 199.117188 89.226562 199.257812 89.296875 C 199.800781 89.566406 200.171875 90.882812 200.414062 92.164062 C 201.691406 92.808594 203.890625 93.953125 206.230469 95.308594 C 204.34375 90.542969 202.753906 84.199219 203.152344 76.773438 C 203.335938 73.347656 202.816406 70.726562 201.960938 68.714844 C 206.136719 67.226562 207.828125 58.21875 201.578125 57.726562 C 197.296875 57.390625 195.296875 60.148438 194.382812 62.433594 C 193.839844 62.347656 193.285156 62.304688 192.726562 62.3125 C 177.59375 62.5 179.316406 71.722656 180.503906 78.238281 C 181.832031 85.511719 181.636719 91.648438 181.082031 96.058594 Z M 302.789062 154.589844 C 302.769531 154.589844 302.746094 154.585938 302.726562 154.582031 C 302.550781 154.550781 302.433594 154.378906 302.46875 154.203125 C 302.578125 153.65625 305.128906 140.808594 307.378906 138.355469 C 307.5 138.222656 307.703125 138.214844 307.835938 138.335938 C 307.96875 138.457031 307.976562 138.660156 307.855469 138.792969 C 305.730469 141.113281 303.132812 154.195312 303.105469 154.328125 C 303.078125 154.484375 302.941406 154.589844 302.789062 154.589844 Z M 302.789062 154.589844 " fill-opacity="1" fill-rule="nonzero"/></g><g clip-path="url(#id4)"><path fill="#ffffff" d="M 200.957031 197.140625 L 195.402344 202.621094 L 190.109375 207.847656 L 190.066406 207.847656 C 188.792969 207.847656 187.621094 207.414062 186.703125 206.679688 C 185.464844 205.699219 184.671875 204.1875 184.671875 202.496094 C 184.671875 201.019531 185.277344 199.679688 186.253906 198.707031 C 187.230469 197.738281 188.578125 197.140625 190.066406 197.140625 Z M 200.957031 197.140625 " fill-opacity="1" fill-rule="nonzero"/></g><g clip-path="url(#id5)"><path fill="#ffffff" d="M 199.207031 209.761719 C 199.207031 211.238281 198.605469 212.578125 197.625 213.550781 C 196.652344 214.515625 195.304688 215.117188 193.8125 215.117188 L 182.957031 215.117188 L 188.507812 209.636719 L 193.804688 204.410156 L 193.820312 204.410156 C 195.09375 204.410156 196.261719 204.847656 197.183594 205.582031 C 198.417969 206.554688 199.207031 208.066406 199.207031 209.761719 Z M 199.207031 209.761719 " fill-opacity="1" fill-rule="nonzero"/></g></svg>