<svg xmlns="http://www.w3.org/2000/svg" xmlns:xlink="http://www.w3.org/1999/xlink" width="600" zoomAndPan="magnify" viewBox="0 0 450 74.999997" height="100" preserveAspectRatio="xMidYMid meet" version="1.0"><defs><g/><clipPath id="id1"><path d="M 8 10.671875 L 56.785156 10.671875 L 56.785156 43 L 8 43 Z M 8 10.671875 " clip-rule="nonzero"/></clipPath><clipPath id="id2"><path d="M 3.535156 32 L 52 32 L 52 64.671875 L 3.535156 64.671875 Z M 3.535156 32 " clip-rule="nonzero"/></clipPath></defs><g clip-path="url(#id1)"><path fill="#000000" d="M 56.785156 10.710938 L 40.359375 27.152344 L 24.691406 42.828125 L 24.566406 42.828125 C 20.796875 42.828125 17.335938 41.519531 14.613281 39.320312 C 10.957031 36.382812 8.613281 31.847656 8.613281 26.769531 C 8.613281 22.339844 10.394531 18.324219 13.292969 15.410156 C 16.175781 12.503906 20.164062 10.710938 24.566406 10.710938 Z M 56.785156 10.710938 " fill-opacity="1" fill-rule="nonzero"/></g><g clip-path="url(#id2)"><path fill="#000000" d="M 51.613281 48.566406 C 51.613281 52.996094 49.828125 57.011719 46.933594 59.925781 C 44.046875 62.828125 40.058594 64.632812 35.648438 64.632812 L 3.535156 64.632812 L 19.957031 48.195312 L 35.625 32.519531 L 35.667969 32.519531 C 39.441406 32.519531 42.898438 33.828125 45.625 36.023438 C 49.277344 38.953125 51.613281 43.484375 51.613281 48.566406 Z M 51.613281 48.566406 " fill-opacity="1" fill-rule="nonzero"/></g><g fill="#000000" fill-opacity="1"><g transform="translate(56.797954, 60.260676)"><g><path d="M 16.921875 0.75 C 14.085938 0.75 11.453125 0.207031 9.015625 -0.875 C 6.585938 -1.957031 4.476562 -3.457031 2.6875 -5.375 L 5.5 -8.546875 C 6.988281 -6.929688 8.734375 -5.65625 10.734375 -4.71875 C 12.734375 -3.78125 14.816406 -3.3125 16.984375 -3.3125 C 19.765625 -3.3125 21.957031 -3.953125 23.5625 -5.234375 C 25.164062 -6.523438 25.96875 -8.253906 25.96875 -10.421875 C 25.96875 -11.796875 25.675781 -12.941406 25.09375 -13.859375 C 24.507812 -14.773438 23.757812 -15.503906 22.84375 -16.046875 C 21.925781 -16.585938 20.632812 -17.234375 18.96875 -17.984375 L 13.046875 -20.59375 C 10.628906 -21.632812 8.640625 -22.96875 7.078125 -24.59375 C 5.523438 -26.21875 4.75 -28.382812 4.75 -31.09375 C 4.75 -33.125 5.285156 -34.953125 6.359375 -36.578125 C 7.441406 -38.203125 8.953125 -39.472656 10.890625 -40.390625 C 12.828125 -41.304688 14.984375 -41.765625 17.359375 -41.765625 C 19.722656 -41.765625 21.9375 -41.304688 24 -40.390625 C 26.0625 -39.472656 27.820312 -38.242188 29.28125 -36.703125 L 26.78125 -33.765625 C 24.070312 -36.390625 20.929688 -37.703125 17.359375 -37.703125 C 14.941406 -37.703125 13.003906 -37.117188 11.546875 -35.953125 C 10.085938 -34.785156 9.359375 -33.242188 9.359375 -31.328125 C 9.359375 -30.046875 9.691406 -28.96875 10.359375 -28.09375 C 11.023438 -27.21875 11.796875 -26.53125 12.671875 -26.03125 C 13.546875 -25.53125 14.734375 -24.945312 16.234375 -24.28125 L 22.15625 -21.65625 C 24.863281 -20.53125 26.957031 -19.132812 28.4375 -17.46875 C 29.914062 -15.8125 30.65625 -13.566406 30.65625 -10.734375 C 30.65625 -8.566406 30.09375 -6.609375 28.96875 -4.859375 C 27.84375 -3.117188 26.238281 -1.75 24.15625 -0.75 C 22.070312 0.25 19.660156 0.75 16.921875 0.75 Z M 16.921875 0.75 "/></g></g></g><g fill="#000000" fill-opacity="1"><g transform="translate(89.874572, 60.260676)"><g><path d="M 14.359375 -37.078125 L 1.75 -37.078125 L 1.75 -41.015625 L 31.515625 -41.015625 L 31.515625 -37.078125 L 18.96875 -37.078125 L 18.96875 0 L 14.359375 0 Z M 14.359375 -37.078125 "/></g></g></g><g fill="#000000" fill-opacity="1"><g transform="translate(123.138406, 60.260676)"><g><path d="M 24.40625 -12.921875 L 9.109375 -12.921875 L 4.9375 0 L 0.25 0 L 14.296875 -41.015625 L 19.40625 -41.015625 L 33.390625 0 L 28.53125 0 Z M 23.21875 -16.609375 L 21.09375 -23.21875 C 19.4375 -28.425781 18.023438 -33.066406 16.859375 -37.140625 L 16.609375 -37.140625 C 15.234375 -32.109375 13.835938 -27.46875 12.421875 -23.21875 L 10.296875 -16.609375 Z M 23.21875 -16.609375 "/></g></g></g><g fill="#000000" fill-opacity="1"><g transform="translate(156.776693, 60.260676)"><g><path d="M 28.28125 0 L 18.109375 -17.734375 L 10.359375 -17.734375 L 10.359375 0 L 5.75 0 L 5.75 -41.015625 L 18.296875 -41.015625 C 27.691406 -41.015625 32.390625 -37.226562 32.390625 -29.65625 C 32.390625 -26.53125 31.546875 -23.988281 29.859375 -22.03125 C 28.179688 -20.070312 25.84375 -18.785156 22.84375 -18.171875 L 33.515625 0 Z M 10.359375 -21.46875 L 17.546875 -21.46875 C 20.867188 -21.46875 23.40625 -22.15625 25.15625 -23.53125 C 26.90625 -24.90625 27.78125 -26.945312 27.78125 -29.65625 C 27.78125 -32.351562 26.925781 -34.296875 25.21875 -35.484375 C 23.507812 -36.671875 20.953125 -37.265625 17.546875 -37.265625 L 10.359375 -37.265625 Z M 10.359375 -21.46875 "/></g></g></g><g fill="#000000" fill-opacity="1"><g transform="translate(191.912797, 60.260676)"><g><path d="M 14.359375 -37.078125 L 1.75 -37.078125 L 1.75 -41.015625 L 31.515625 -41.015625 L 31.515625 -37.078125 L 18.96875 -37.078125 L 18.96875 0 L 14.359375 0 Z M 14.359375 -37.078125 "/></g></g></g><g fill="#000000" fill-opacity="1"><g transform="translate(225.17663, 60.260676)"><g><path d="M 20.03125 0.75 C 15.625 0.75 12.109375 -0.609375 9.484375 -3.328125 C 6.867188 -6.054688 5.5625 -10.484375 5.5625 -16.609375 L 5.5625 -41.015625 L 10.171875 -41.015625 L 10.171875 -16.609375 C 10.171875 -11.859375 11.066406 -8.453125 12.859375 -6.390625 C 14.648438 -4.335938 17.039062 -3.3125 20.03125 -3.3125 C 23.113281 -3.3125 25.570312 -4.335938 27.40625 -6.390625 C 29.238281 -8.453125 30.15625 -11.859375 30.15625 -16.609375 L 30.15625 -41.015625 L 34.578125 -41.015625 L 34.578125 -16.609375 C 34.578125 -10.484375 33.253906 -6.054688 30.609375 -3.328125 C 27.972656 -0.609375 24.445312 0.75 20.03125 0.75 Z M 20.03125 0.75 "/></g></g></g><g fill="#000000" fill-opacity="1"><g transform="translate(265.305428, 60.260676)"><g><path d="M 5.75 -41.015625 L 17.109375 -41.015625 C 21.972656 -41.015625 25.722656 -40.085938 28.359375 -38.234375 C 31.003906 -36.378906 32.328125 -33.332031 32.328125 -29.09375 C 32.328125 -24.96875 30.992188 -21.851562 28.328125 -19.75 C 25.671875 -17.65625 22.015625 -16.609375 17.359375 -16.609375 L 10.359375 -16.609375 L 10.359375 0 L 5.75 0 Z M 16.671875 -20.40625 C 20.453125 -20.40625 23.238281 -21.101562 25.03125 -22.5 C 26.820312 -23.894531 27.71875 -26.09375 27.71875 -29.09375 C 27.71875 -32.082031 26.800781 -34.191406 24.96875 -35.421875 C 23.132812 -36.648438 20.285156 -37.265625 16.421875 -37.265625 L 10.359375 -37.265625 L 10.359375 -20.40625 Z M 16.671875 -20.40625 "/></g></g></g><g fill="#000000" fill-opacity="1"><g transform="translate(300.379119, 60.260676)"><g/></g></g><g fill="#000000" fill-opacity="1"><g transform="translate(312.860858, 60.260676)"><g><path d="M 14.359375 -37.078125 L 1.75 -37.078125 L 1.75 -41.015625 L 31.515625 -41.015625 L 31.515625 -37.078125 L 18.96875 -37.078125 L 18.96875 0 L 14.359375 0 Z M 14.359375 -37.078125 "/></g></g></g><g fill="#000000" fill-opacity="1"><g transform="translate(346.124679, 60.260676)"><g><path d="M 24.40625 -12.921875 L 9.109375 -12.921875 L 4.9375 0 L 0.25 0 L 14.296875 -41.015625 L 19.40625 -41.015625 L 33.390625 0 L 28.53125 0 Z M 23.21875 -16.609375 L 21.09375 -23.21875 C 19.4375 -28.425781 18.023438 -33.066406 16.859375 -37.140625 L 16.609375 -37.140625 C 15.234375 -32.109375 13.835938 -27.46875 12.421875 -23.21875 L 10.296875 -16.609375 Z M 23.21875 -16.609375 "/></g></g></g><g fill="#000000" fill-opacity="1"><g transform="translate(379.762954, 60.260676)"><g><path d="M 5.75 -41.015625 L 10.359375 -41.015625 L 10.359375 -3.9375 L 28.46875 -3.9375 L 28.46875 0 L 5.75 0 Z M 5.75 -41.015625 "/></g></g></g><g fill="#000000" fill-opacity="1"><g transform="translate(409.781539, 60.260676)"><g><path d="M 5.75 -41.015625 L 29.03125 -41.015625 L 29.03125 -37.078125 L 10.359375 -37.078125 L 10.359375 -23.53125 L 26.09375 -23.53125 L 26.09375 -19.65625 L 10.359375 -19.65625 L 10.359375 -3.9375 L 29.65625 -3.9375 L 29.65625 0 L 5.75 0 Z M 5.75 -41.015625 "/></g></g></g></svg>