<?xml version="1.0" encoding="iso-8859-1"?>
<!-- Generator: Adobe Illustrator 19.0.0, SVG Export Plug-In . SVG Version: 6.00 Build 0)  -->
<svg version="1.1" id="Layer_1" xmlns="http://www.w3.org/2000/svg" xmlns:xlink="http://www.w3.org/1999/xlink" x="0px" y="0px"
	 viewBox="0 0 512 512" style="enable-background:new 0 0 512 512;" xml:space="preserve">
<path style="fill:#FF7855;" d="M0,256c0,141.384,114.615,256,256,256l22.261-256L256,0C114.615,0,0,114.615,0,256z"/>
<path style="fill:#FF562B;" d="M256,0v512c141.384,0,256-114.616,256-256S397.384,0,256,0z"/>
<path style="fill:#FFFFFF;" d="M66.783,256c0,40.19,12.541,77.446,33.907,108.089L256,208.778l22.261-70.998L256,66.783
	C151.499,66.783,66.783,151.497,66.783,256z"/>
<path style="fill:#FFEAC3;" d="M256,66.783v141.995l108.089-108.089C333.446,79.323,296.19,66.783,256,66.783z"/>
<path style="fill:#FFFFFF;" d="M147.911,411.311c30.643,21.366,67.899,33.907,108.089,33.907l22.261-70.998L256,303.222
	L147.911,411.311z"/>
<path style="fill:#FFEAC3;" d="M411.311,147.911L256,303.222v141.995c104.501,0,189.217-84.716,189.217-189.217
	C445.217,215.81,432.677,178.554,411.311,147.911z"/>
<g>
</g>
<g>
</g>
<g>
</g>
<g>
</g>
<g>
</g>
<g>
</g>
<g>
</g>
<g>
</g>
<g>
</g>
<g>
</g>
<g>
</g>
<g>
</g>
<g>
</g>
<g>
</g>
<g>
</g>
</svg>
