<svg xmlns="http://www.w3.org/2000/svg" xmlns:xlink="http://www.w3.org/1999/xlink" width="100" zoomAndPan="magnify" viewBox="0 0 75 74.999997" height="100" preserveAspectRatio="xMidYMid meet" version="1.0"><defs><clipPath id="id1"><path d="M 2.523438 14.007812 L 72.273438 14.007812 L 72.273438 61.257812 L 2.523438 61.257812 Z M 2.523438 14.007812 " clip-rule="nonzero"/></clipPath></defs><g clip-path="url(#id1)"><path fill="#000000" d="M 69.476562 28.867188 C 69.476562 29.050781 69.476562 29.257812 69.421875 29.441406 L 65.128906 46.769531 C 64.921875 47.632812 64.140625 48.265625 63.253906 48.265625 L 37.488281 48.394531 L 11.699219 48.394531 C 10.8125 48.394531 10.03125 47.792969 9.796875 46.898438 L 5.503906 29.523438 C 5.453125 29.3125 5.453125 29.101562 5.453125 28.917969 C 3.785156 28.394531 2.589844 26.816406 2.589844 24.980469 C 2.589844 22.695312 4.4375 20.832031 6.699219 20.832031 C 8.964844 20.832031 10.8125 22.695312 10.8125 24.980469 C 10.8125 26.265625 10.238281 27.421875 9.304688 28.183594 L 14.691406 33.644531 C 16.019531 35.007812 17.917969 35.796875 19.84375 35.796875 C 22.132812 35.796875 24.292969 34.691406 25.671875 32.882812 L 34.496094 21.070312 C 33.742188 20.335938 33.300781 19.285156 33.300781 18.15625 C 33.300781 15.871094 35.148438 14.007812 37.410156 14.007812 C 39.675781 14.007812 41.523438 15.871094 41.523438 18.15625 C 41.523438 19.257812 41.082031 20.253906 40.378906 21.015625 L 49.148438 32.855469 C 50.527344 34.691406 52.6875 35.796875 54.980469 35.796875 C 56.929688 35.796875 58.753906 35.035156 60.132812 33.644531 L 65.546875 28.183594 C 64.609375 27.421875 64.007812 26.265625 64.007812 24.953125 C 64.007812 22.671875 65.859375 20.808594 68.121094 20.808594 C 70.386719 20.808594 72.234375 22.671875 72.234375 24.953125 C 72.207031 26.765625 71.0625 28.289062 69.476562 28.867188 Z M 64.710938 54.5625 C 64.710938 53.488281 63.828125 52.59375 62.761719 52.59375 L 12.269531 52.59375 C 11.203125 52.59375 10.316406 53.488281 10.316406 54.5625 L 10.316406 59.289062 C 10.316406 60.367188 11.203125 61.257812 12.269531 61.257812 L 62.761719 61.257812 C 63.828125 61.257812 64.710938 60.367188 64.710938 59.289062 Z M 64.710938 54.5625 " fill-opacity="1" fill-rule="nonzero"/></g></svg>